<?xml version="1.0" standalone="no"?>
<!DOCTYPE svg PUBLIC "-//W3C//DTD SVG 20010904//EN"
 "http://www.w3.org/TR/2001/REC-SVG-20010904/DTD/svg10.dtd">
<svg version="1.0" xmlns="http://www.w3.org/2000/svg"
 width="500.000000pt" height="500.000000pt" viewBox="0 0 500.000000 500.000000"
 preserveAspectRatio="xMidYMid meet">

<g transform="translate(0.000000,500.000000) scale(0.100000,-0.100000)"
fill="#000000" stroke="none">
<path d="M1660 3841 c0 -95 -2 -111 -16 -111 -14 0 -16 -12 -12 -80 3 -75 2
-79 -16 -74 -18 6 -19 2 -14 -57 3 -35 15 -90 25 -122 l20 -57 -33 6 c-19 3
-34 4 -34 0 0 -3 12 -35 26 -71 15 -36 24 -69 20 -72 -3 -3 -23 -1 -45 5 -56
17 -64 16 -51 -9 7 -11 10 -22 8 -24 -2 -2 -30 5 -63 16 -67 22 -195 37 -195
22 0 -5 5 -14 12 -21 18 -18 4 -24 -26 -12 -15 5 -66 10 -114 9 -90 0 -135
-10 -114 -23 27 -17 9 -33 -50 -45 -34 -7 -114 -36 -178 -65 -63 -29 -132 -59
-152 -65 -21 -7 -38 -16 -38 -19 0 -4 22 -19 48 -33 76 -43 164 -112 151 -120
-23 -14 12 -50 131 -137 4 -3 -16 -18 -35 -26 -15 -5 53 -74 113 -113 56 -36
62 -47 35 -58 -42 -16 159 -150 255 -170 27 -5 37 -16 59 -58 64 -126 247
-246 376 -247 23 0 31 -7 43 -37 35 -88 63 -129 128 -189 76 -71 158 -115 257
-139 85 -20 269 -19 367 1 221 45 417 170 502 319 31 54 34 57 64 50 210 -45
382 -3 496 121 59 64 90 140 97 238 l6 81 53 24 c77 34 91 45 76 64 -10 12 -2
20 53 52 85 50 113 79 95 100 -14 17 -13 18 35 54 17 12 54 45 83 74 49 47 52
52 36 64 -17 12 -15 15 16 43 19 16 59 46 88 66 28 21 51 38 50 40 -11 10
-246 105 -273 110 -38 7 -52 19 -35 29 5 3 10 10 10 14 0 13 -156 59 -223 67
-46 5 -55 9 -47 20 17 19 -45 28 -137 20 -72 -7 -74 -6 -68 14 5 17 2 20 -22
20 -38 0 -135 -26 -190 -50 l-44 -19 6 20 c6 18 4 20 -17 14 -12 -4 -43 -18
-67 -31 l-43 -24 6 26 c6 23 4 25 -14 19 -20 -6 -21 -4 -16 37 20 158 18 176
-12 146 -6 -6 -15 -9 -18 -5 -6 5 12 94 32 164 6 21 4 22 -32 16 -57 -8 -121
-30 -169 -59 -37 -21 -44 -23 -47 -9 -2 12 -18 6 -72 -30 -52 -34 -72 -42 -78
-33 -6 10 -20 0 -51 -36 -23 -27 -68 -76 -101 -109 -63 -63 -67 -63 -85 1 -5
18 -26 62 -46 98 -29 52 -40 64 -55 59 -13 -4 -20 0 -25 15 -9 28 -80 117
-111 137 -21 14 -27 14 -34 3 -7 -11 -20 -4 -57 32 -62 58 -93 75 -103 58 -6
-9 -24 -3 -67 24 -55 34 -101 48 -88 26 3 -5 3 -10 -2 -10 -16 0 -169 83 -205
112 l-38 30 0 -111z m112 -54 c163 -213 240 -324 338 -487 68 -114 104 -190
90 -190 -4 0 -19 19 -33 43 -55 96 -221 354 -244 379 -14 14 -52 41 -84 58
-32 17 -59 35 -59 39 0 4 -7 16 -16 27 -8 10 -12 12 -8 4 4 -8 3 -11 -1 -7
-13 12 -15 36 -3 44 7 4 8 1 3 -7 -5 -8 -4 -11 3 -6 15 9 4 36 -14 36 -8 0
-14 5 -14 11 0 5 5 7 11 3 7 -4 7 1 -1 16 -18 33 -23 17 -16 -44 8 -61 23 -77
125 -132 74 -39 131 -118 139 -192 1 -7 7 -10 14 -6 6 4 8 3 4 -4 -4 -7 -24
-3 -61 14 -29 14 -64 27 -76 29 -12 3 -32 13 -43 24 -12 11 -25 20 -31 20 -5
0 -11 5 -14 12 -2 7 2 9 10 5 8 -4 5 0 -5 8 -11 9 -23 16 -27 16 -13 0 -18 29
-7 36 6 4 8 3 4 -4 -3 -6 -2 -13 3 -16 20 -13 3 24 -27 58 -37 42 -37 43 -18
43 8 0 12 -6 9 -12 -2 -7 2 -15 10 -18 20 -8 16 17 -8 43 -28 31 -38 25 -30
-22 9 -51 38 -112 70 -144 13 -12 21 -25 18 -28 -3 -2 6 -2 19 1 15 3 19 2 10
-4 -8 -6 9 -16 55 -32 79 -27 179 -84 193 -111 12 -23 -5 -22 -43 3 -79 50
-84 52 -47 16 36 -35 36 -35 15 -53 -11 -9 -15 -15 -8 -11 6 3 14 1 18 -5 4
-6 10 -8 15 -5 5 3 11 1 14 -4 4 -5 2 -12 -3 -15 -5 -4 -12 -2 -16 4 -3 5 -11
10 -16 10 -6 0 0 -15 12 -32 l22 -33 -31 29 c-17 16 -37 26 -45 23 -8 -3 -23
0 -33 8 -10 7 -25 10 -33 7 -10 -4 -12 -1 -6 8 6 9 4 11 -4 5 -8 -5 -31 10
-62 41 -46 46 -64 74 -36 58 6 -4 2 4 -11 18 -26 29 -34 57 -21 74 10 12 -13
36 -43 47 -15 5 -18 1 -18 -24 0 -38 73 -184 102 -203 13 -8 75 -36 138 -62
120 -49 137 -58 123 -67 -20 -13 -323 110 -308 125 3 3 -3 8 -15 11 -28 7 -33
-7 -15 -43 8 -16 13 -30 10 -30 -3 0 -1 -9 5 -20 19 -36 -7 -21 -33 19 -23 34
-57 105 -57 118 0 5 36 -2 63 -13 10 -4 5 19 -19 79 -19 46 -37 106 -41 132
-6 46 -6 47 15 34 29 -18 34 -9 23 42 -13 53 -14 119 -3 119 4 0 14 -6 21 -12
11 -11 12 4 6 85 -7 94 -6 98 12 87 10 -7 39 -39 65 -73z m56 29 c38 -19 73
-41 80 -48 13 -16 40 -139 34 -157 -4 -13 -52 50 -52 69 0 6 -5 8 -12 4 -7 -4
-8 -3 -4 4 8 13 -3 39 -19 44 -5 2 -9 9 -9 15 1 7 -2 11 -6 8 -10 -6 -40 22
-40 37 0 6 9 3 20 -7 11 -10 20 -16 20 -13 0 2 -12 15 -27 29 -14 13 -23 18
-19 12 4 -7 4 -13 -1 -13 -9 1 -47 50 -38 50 3 0 36 -15 73 -34z m191 -80 l34
-35 -7 -79 c-7 -78 -23 -156 -25 -119 -1 10 -7 20 -15 23 -9 3 -12 12 -9 21 4
11 2 14 -5 9 -8 -5 -12 2 -13 21 0 25 -1 26 -10 8 -7 -15 -8 -10 -3 18 3 26 2
37 -5 32 -7 -4 -11 5 -11 22 0 15 -6 51 -14 80 -8 28 -12 54 -9 57 9 9 57 -21
92 -58z m124 -45 c21 -20 45 -48 53 -63 18 -34 28 -35 41 -6 9 21 12 19 56
-37 25 -33 49 -73 53 -90 9 -44 14 -48 32 -24 17 20 18 20 45 -38 29 -63 46
-128 47 -183 l1 -35 16 30 16 30 12 -35 c19 -55 24 -150 10 -205 l-13 -50 -1
57 c0 31 -6 60 -13 64 -6 4 -8 3 -5 -3 4 -6 1 -18 -6 -27 -10 -14 -12 -9 -9
31 l3 48 -32 -63 c-17 -34 -33 -61 -36 -59 -2 3 3 47 12 99 9 52 15 112 12
134 -4 38 -4 38 -5 -8 -1 -26 -7 -50 -12 -53 -6 -4 -8 -16 -4 -27 4 -15 3 -18
-7 -13 -8 6 -11 4 -7 -6 3 -8 -1 -20 -8 -27 -11 -10 -13 -7 -8 17 4 16 1 31
-5 35 -7 4 -11 -1 -11 -13 0 -11 -4 -22 -9 -25 -4 -3 -6 7 -4 22 l4 27 -15
-30 c-13 -29 -14 -28 -10 30 5 71 -1 64 -20 -25 -22 -101 -19 -24 5 118 14 87
18 131 11 146 -8 17 -10 12 -9 -26 0 -47 -22 -143 -31 -133 -3 2 -11 0 -19 -7
-10 -8 -12 -8 -8 4 3 8 1 25 -5 39 -10 24 -10 24 -7 -3 6 -41 -8 -34 -20 10
l-10 37 -2 -36 c-2 -55 -12 -99 -24 -99 -10 0 -3 191 9 262 4 23 3 29 -4 19
-5 -7 -13 -61 -17 -120 -8 -114 -10 -117 -20 -28 -4 32 -9 56 -12 53 -4 -3
-12 -1 -19 5 -9 8 -11 5 -8 -13 2 -13 2 -17 -2 -10 -3 6 -11 12 -18 12 -7 0
-18 15 -24 33 -11 30 -11 30 -8 4 2 -20 0 -25 -7 -18 -11 11 -12 201 -1 284 7
54 6 54 77 -12z m942 -119 c-8 -23 -18 -67 -21 -97 l-7 -56 26 6 25 7 -13 -69
c-7 -37 -18 -81 -24 -96 -15 -39 -15 -40 19 -33 l30 6 -19 -38 c-10 -20 -28
-67 -40 -104 -23 -69 -35 -86 -46 -68 -4 6 -12 7 -18 3 -7 -3 -4 3 6 14 18 21
23 38 8 29 -5 -3 -15 2 -22 11 -8 9 -9 14 -4 11 6 -4 17 -2 25 4 12 8 11 9 -3
4 -12 -4 -17 -2 -14 6 2 7 10 12 16 10 7 -1 10 2 7 6 -6 10 28 45 36 37 2 -3
5 2 5 10 0 8 -1 15 -1 15 -1 0 -31 -30 -66 -67 -36 -36 -58 -62 -50 -57 25 15
43 14 30 -1 -6 -7 -19 -12 -28 -10 -9 1 -26 -2 -37 -8 -43 -23 -48 -14 -10 16
91 73 140 146 150 222 3 30 3 59 0 65 -4 6 -1 18 6 26 10 12 9 13 -6 8 -14 -6
-16 -4 -10 6 5 7 -3 5 -17 -6 -14 -10 -24 -21 -21 -24 4 -5 8 -6 33 -9 6 0 10
-10 10 -22 0 -11 -4 -18 -8 -15 -5 3 -6 -8 -4 -24 7 -50 -97 -195 -122 -170
-7 7 -15 4 -26 -10 -8 -11 -25 -22 -37 -24 -18 -4 -21 -1 -17 20 4 23 -13 30
-27 11 -3 -5 -9 1 -12 12 -8 31 27 67 102 106 36 19 62 34 56 34 -5 0 -38 -15
-73 -33 -59 -32 -62 -33 -57 -13 12 43 -17 -13 -60 -117 -43 -104 -75 -144
-50 -64 45 147 127 288 263 454 58 71 120 129 129 121 1 -2 -4 -22 -12 -45z
m-98 -20 c-31 -32 -57 -64 -58 -72 0 -10 -3 -8 -9 5 -7 17 -9 17 -9 3 -1 -10
-9 -26 -18 -36 -10 -10 -23 -27 -29 -37 -15 -26 -34 -30 -34 -8 0 73 48 130
149 180 69 34 71 28 8 -35z m-1243 -11 c-2 -3 -12 3 -22 13 -16 17 -16 18 5 5
12 -7 20 -15 17 -18z m1090 -56 c-9 -33 -13 -76 -10 -95 3 -21 2 -30 -3 -21
-6 9 -11 -3 -16 -35 -4 -27 -10 -43 -12 -36 -8 20 -22 14 -16 -8 8 -30 -6 -24
-18 7 -8 22 -12 24 -19 13 -6 -8 -10 -30 -10 -47 0 -23 -5 -33 -16 -33 -11 0
-14 6 -9 21 5 15 4 19 -4 15 -6 -4 -11 -13 -11 -20 0 -7 -7 -21 -16 -32 -8
-10 -13 -14 -10 -8 3 5 -1 32 -9 60 l-13 49 -1 -39 c-1 -21 6 -64 14 -95 15
-60 19 -163 4 -126 -4 11 -8 32 -8 48 -1 15 -5 27 -9 27 -5 0 -15 33 -22 73
-11 62 -14 68 -21 44 -4 -15 -6 -60 -5 -99 1 -40 -1 -63 -5 -52 -4 10 -8 34
-8 53 -1 19 -8 58 -18 87 l-16 53 28 37 c24 31 30 34 35 20 4 -13 12 -5 29 33
13 27 36 62 51 76 26 25 28 25 33 6 4 -17 12 -12 62 36 31 30 58 53 60 51 2
-2 -3 -31 -11 -63z m-1096 -104 c15 -21 18 -32 10 -37 -6 -4 -8 -3 -4 4 3 6 2
13 -4 17 -10 6 -34 45 -27 45 2 0 13 -13 25 -29z m63 -103 c8 -15 8 -18 0 -14
-6 4 -16 16 -22 28 -8 15 -8 18 0 14 6 -4 16 -16 22 -28z m1668 -4 c-13 -35
-7 -39 33 -25 18 6 66 14 105 18 71 6 86 0 62 -24 -7 -7 16 -12 78 -15 85 -5
203 -34 203 -49 0 -4 -4 -11 -10 -14 -15 -9 -12 -25 5 -25 22 0 204 -59 209
-69 3 -4 -14 -5 -37 -1 -86 15 -134 20 -102 11 l30 -9 -37 -1 c-21 0 -38 -6
-38 -12 0 -5 -5 -7 -10 -4 -6 4 -16 2 -23 -3 -11 -9 -74 -22 -127 -27 -14 -1
-41 -7 -60 -13 -54 -18 -112 -23 -103 -9 3 6 -9 0 -28 -13 -19 -13 -28 -17
-21 -8 10 13 10 17 -2 21 -9 4 -18 1 -22 -5 -5 -7 -2 -8 7 -3 8 5 11 5 7 1 -3
-4 -8 -6 -11 -4 -2 2 -11 -3 -20 -10 -12 -10 -17 -10 -23 -1 -4 7 -3 9 4 5 6
-3 13 -2 16 3 12 18 -13 21 -26 4 -13 -18 -38 -29 -38 -17 0 4 16 28 36 55 48
66 119 126 157 135 18 4 27 9 20 11 -18 7 -76 -24 -112 -59 -42 -41 -39 -20 9
55 44 70 41 75 -40 57 l-45 -9 54 5 54 5 -16 -23 c-10 -13 -35 -57 -57 -98
-39 -72 -80 -134 -102 -155 -6 -5 -5 1 2 15 7 14 9 22 5 18 -5 -4 -14 -3 -21
3 -8 7 -14 6 -20 -2 -5 -8 -3 -9 6 -4 9 6 11 4 5 -5 -6 -9 -4 -11 4 -5 10 6
11 3 2 -14 -14 -26 -19 -27 -17 -3 0 9 -6 17 -15 17 -9 0 -23 6 -32 13 -16 14
-21 11 -52 -33 -26 -38 -24 -8 4 51 15 32 50 84 76 114 37 41 40 46 12 21 -24
-22 -37 -30 -37 -20 -1 7 -11 -6 -24 -31 -13 -25 -33 -53 -45 -64 -18 -16 -23
-17 -37 -5 -16 13 -16 12 -4 -11 13 -24 12 -24 -6 -10 -10 8 -20 15 -22 16 -2
1 2 12 8 24 7 12 8 20 2 16 -5 -3 -15 0 -21 8 -8 10 -6 17 9 31 11 10 17 22
14 27 -4 5 9 26 27 46 32 34 32 34 5 13 -17 -12 -45 -44 -63 -72 -19 -27 -38
-47 -43 -44 -6 4 -10 0 -10 -8 0 -8 -7 -21 -16 -28 -15 -12 -16 -11 -9 11 4
14 12 31 18 38 5 7 11 22 13 35 6 39 9 52 19 67 8 13 7 13 -8 1 -9 -7 -15 -17
-12 -21 3 -5 -4 -11 -15 -15 -11 -3 -20 -11 -20 -16 0 -6 -4 -7 -10 -4 -5 3
-10 1 -10 -6 0 -7 -3 -10 -6 -6 -11 10 55 94 91 115 l35 21 0 -31 c0 -29 1
-30 18 -16 30 27 168 85 229 98 1 0 -2 -12 -8 -26z m-1452 -20 c-3 -3 -12 -4
-19 -1 -8 3 -5 6 6 6 11 1 17 -2 13 -5z m-232 -44 c3 -6 -1 -7 -10 -4 -10 4
-14 1 -12 -7 2 -8 2 -11 0 -6 -3 4 -9 5 -13 2 -5 -3 -12 0 -16 6 -4 7 -3 9 4
5 6 -3 13 -2 17 4 8 13 22 13 30 0z m422 -22 c-3 -8 -6 -5 -6 6 -1 11 2 17 5
13 3 -3 4 -12 1 -19z m-324 -41 c-3 -5 4 -6 15 -3 22 7 39 -8 22 -19 -5 -3
-10 -2 -10 4 0 6 -6 8 -13 5 -7 -2 -23 4 -36 15 -12 11 -32 26 -44 35 -12 8
-1 6 25 -6 25 -13 44 -26 41 -31z m-412 12 c60 -17 174 -87 193 -118 4 -6 12
-11 17 -11 6 0 7 5 4 10 -3 6 -1 10 4 10 16 0 13 -15 -7 -33 -17 -15 -21 -13
-72 25 -65 49 -111 78 -125 78 -5 0 6 -10 26 -23 68 -42 118 -82 119 -95 0
-10 -5 -9 -22 2 -12 9 -26 16 -29 16 -11 0 -5 -26 9 -43 10 -12 8 -19 -8 -38
-19 -22 -21 -23 -31 -6 -5 9 -14 15 -19 12 -5 -3 -15 4 -23 15 -7 11 -16 17
-19 14 -3 -3 -23 14 -43 38 -21 24 -34 37 -30 29 5 -9 4 -12 -3 -7 -6 3 -10
14 -10 24 0 9 -2 30 -5 45 -5 22 -3 28 8 23 8 -3 16 -2 19 2 3 4 -9 9 -26 10
-25 2 -29 0 -20 -11 7 -8 9 -16 6 -20 -3 -3 -1 -16 6 -29 11 -22 11 -23 -5 -3
-15 18 -55 99 -55 111 0 8 69 -6 141 -27z m218 -24 c36 -20 79 -46 95 -59 l29
-24 -29 3 c-16 1 -54 15 -84 30 -48 24 -53 25 -36 7 10 -12 21 -21 25 -20 19
2 30 -4 35 -19 6 -16 6 -16 -12 0 -11 10 -22 13 -28 8 -16 -17 -94 69 -94 104
0 13 38 2 99 -30z m-411 10 c38 -17 82 -52 82 -67 0 -5 -4 -6 -10 -3 -16 10
-11 -1 7 -16 15 -12 16 -12 8 1 -11 21 72 -74 113 -126 17 -24 32 -47 32 -53
0 -11 -26 -9 -37 4 -4 4 -1 5 7 1 19 -10 -29 31 -52 45 -28 16 -22 -7 8 -30
17 -13 21 -21 12 -21 -8 0 -29 14 -47 30 -17 17 -36 28 -42 24 -6 -3 -20 2
-31 13 -12 10 -18 13 -15 7 4 -7 1 -17 -7 -23 -10 -9 -27 4 -78 58 -36 39 -82
93 -102 121 l-36 50 75 0 c46 0 90 -6 113 -15z m689 -21 c-3 -3 -12 -4 -19 -1
-8 3 -5 6 6 6 11 1 17 -2 13 -5z m-801 -82 c51 -57 79 -100 71 -108 -9 -9
-106 29 -100 40 3 6 0 5 -8 -1 -17 -17 -40 -16 -33 0 3 8 -3 20 -13 27 -15 12
-16 12 -5 0 16 -18 15 -30 -1 -30 -21 0 -51 38 -53 66 -1 24 10 32 21 14 3 -5
14 -14 25 -20 15 -8 18 -6 16 8 -2 9 2 20 8 24 13 9 -45 10 -96 2 -23 -4 -35
-11 -31 -17 4 -7 -1 -8 -13 -3 -15 6 -16 5 -7 -5 10 -10 15 -9 28 1 12 10 18
10 30 0 13 -11 13 -14 -2 -26 -14 -11 -15 -13 -2 -9 9 3 22 -1 29 -10 13 -16
8 -18 -27 -9 -13 4 -23 12 -23 18 0 7 -16 13 -37 14 -20 2 -40 5 -44 8 -5 3
-17 1 -26 -4 -20 -11 -108 -23 -99 -15 9 10 147 64 196 78 25 7 68 14 95 14
49 1 51 -1 101 -57z m1004 27 c86 -18 164 -49 151 -62 -7 -7 -15 -6 -26 3 -12
10 -18 10 -30 0 -9 -7 -25 -10 -42 -5 -23 5 -25 4 -14 -9 12 -14 10 -16 -11
-16 -13 0 -29 5 -35 11 -9 9 -11 7 -7 -8 3 -11 -2 -27 -11 -37 -18 -18 -35
-21 -35 -7 0 5 -6 11 -13 14 -10 4 -13 -2 -9 -21 3 -15 1 -24 -3 -20 -5 4 -15
2 -23 -5 -13 -10 -14 -9 -7 2 5 10 4 12 -3 7 -7 -4 -12 -14 -12 -22 0 -8 -7
-14 -16 -14 -9 0 -12 -5 -8 -12 4 -7 -12 5 -36 27 l-42 40 27 -43 c30 -50 27
-62 -11 -37 -17 11 -23 12 -18 4 12 -19 15 -49 6 -49 -4 0 -19 8 -32 17 l-25
17 19 -22 c17 -20 15 -27 -6 -23 -5 0 -7 -4 -5 -11 1 -6 -6 -14 -17 -16 -13
-3 -16 0 -11 9 5 8 4 10 -4 5 -6 -4 -19 -2 -28 6 -14 12 -15 11 -5 -8 20 -38
-14 -59 -65 -38 -18 7 -33 11 -33 8 0 -3 -9 0 -20 6 -33 18 -22 5 25 -29 25
-18 45 -37 45 -44 0 -8 -3 -8 -12 1 -17 17 -26 15 -24 -5 1 -12 -9 -20 -29
-24 -16 -4 -24 -7 -17 -8 6 0 12 -6 12 -12 0 -5 -4 -7 -10 -4 -5 3 -10 2 -10
-4 0 -19 -32 -42 -51 -36 -28 9 -42 -4 -23 -22 23 -23 3 -35 -34 -21 -28 11
-34 10 -42 -2 -14 -23 -12 -30 9 -30 11 0 23 -5 27 -11 5 -9 -2 -10 -22 -6
-16 3 -23 4 -16 1 6 -3 9 -11 6 -16 -5 -7 -2 -8 6 -3 8 5 11 4 6 -3 -3 -6 -20
-18 -38 -26 -59 -30 -100 -15 -96 36 2 22 6 24 43 22 39 -2 39 -2 15 11 -31
18 -43 19 -34 3 5 -7 3 -8 -5 -3 -23 14 4 26 34 15 40 -15 42 -6 3 14 l-33 17
44 -6 c40 -4 43 -4 25 9 -10 8 -22 12 -27 9 -11 -7 -4 21 8 30 6 4 4 11 -5 18
-11 8 -6 9 22 5 l38 -5 -28 25 c-20 17 -22 22 -8 17 13 -4 17 -3 12 5 -5 8 3
12 24 12 21 0 29 4 24 12 -5 7 -3 8 5 4 9 -6 8 -13 -6 -29 -18 -20 -18 -20 10
-2 29 19 35 35 13 35 -8 0 -24 9 -37 21 -13 11 -19 18 -13 15 6 -3 24 -1 40 4
l29 10 -30 -4 c-27 -4 -28 -3 -11 10 10 7 23 11 27 8 5 -3 6 2 3 10 -7 19 91
82 120 78 10 -2 15 1 12 6 -3 6 2 13 11 15 10 3 -2 3 -27 1 l-45 -4 40 16 c38
16 87 19 130 9 11 -3 2 4 -20 14 -22 11 -32 20 -22 20 9 1 17 4 17 9 0 4 4 13
9 20 6 10 16 9 45 -9 42 -24 60 -21 21 5 -30 20 -32 36 -5 36 11 0 20 5 20 11
0 5 4 8 9 4 5 -3 27 1 48 9 21 8 47 17 58 19 17 4 17 5 -3 6 -29 1 -119 -24
-187 -52 -174 -73 -393 -286 -419 -407 -3 -14 -10 -43 -15 -65 -10 -41 -4
-118 9 -110 3 2 7 -8 7 -23 0 -31 65 -147 87 -155 13 -5 13 -2 4 18 -6 14 -14
25 -18 25 -4 0 -5 21 -3 48 3 41 1 50 -22 68 -22 17 -23 21 -8 22 10 0 30 -2
44 -4 l26 -5 -15 -42 c-17 -49 -6 -108 27 -144 11 -11 17 -24 13 -29 -4 -4 -2
-4 4 -1 6 3 26 -9 44 -28 19 -19 39 -35 45 -35 6 0 -7 19 -30 43 -46 49 -71
117 -60 166 10 44 21 38 17 -9 -4 -37 32 -142 47 -137 8 2 113 -64 122 -76 4
-5 12 -6 18 -3 6 4 11 0 11 -8 0 -17 -8 -20 -55 -17 -48 2 -115 31 -181 78
-71 50 -104 90 -142 171 -22 48 -27 71 -27 142 0 81 3 89 44 169 140 265 512
471 761 420z m-1095 -19 c3 -5 1 -10 -4 -10 -6 0 -11 5 -11 10 0 6 2 10 4 10
3 0 8 -4 11 -10z m3155 -17 c0 -5 -22 -21 -49 -37 -26 -15 -65 -44 -85 -64
l-38 -35 21 -16 22 -17 -28 -25 c-48 -44 -101 -79 -155 -104 -29 -14 -48 -25
-43 -25 6 0 21 -9 34 -19 l24 -18 -44 -30 c-24 -16 -66 -37 -92 -47 -46 -17
-48 -19 -31 -37 20 -22 20 -21 -23 -43 -29 -14 -33 -14 -47 0 -24 24 -19 35
10 23 15 -5 29 -7 32 -4 8 7 -49 54 -65 55 -6 0 -14 4 -17 8 -2 4 18 9 45 10
27 1 66 11 86 22 21 11 43 20 50 20 7 0 13 5 13 10 0 6 8 11 18 11 9 1 4 4
-13 8 -16 4 -31 3 -33 -1 -2 -4 -8 -8 -13 -8 -6 0 -7 5 -4 10 3 6 0 10 -7 10
-7 0 -23 3 -35 6 -14 4 -23 2 -23 -5 0 -6 8 -8 18 -4 9 3 5 -3 -10 -15 -14
-12 -30 -22 -35 -22 -4 0 1 7 11 15 17 13 17 15 4 15 -9 0 -19 -4 -22 -9 -8
-12 -74 -7 -89 8 -6 6 -7 11 -1 11 6 0 15 -5 22 -12 9 -9 14 -9 22 0 6 6 7 10
4 8 -9 -6 -44 26 -38 36 3 4 -1 5 -9 2 -17 -6 -83 31 -91 51 -3 8 -21 23 -41
32 -24 12 -31 19 -23 25 16 10 31 10 25 1 -3 -5 8 -8 24 -9 16 -1 57 -15 90
-33 73 -38 171 -62 224 -56 22 3 57 17 77 30 21 14 40 25 43 25 7 0 72 47 93
68 11 10 9 12 -11 12 -14 0 -28 6 -31 13 -3 9 -9 7 -19 -5 -8 -10 -16 -17 -18
-15 -2 1 2 -4 10 -10 18 -16 7 -17 -21 -2 -15 8 -19 8 -14 0 4 -7 -1 -11 -12
-11 -37 0 -234 79 -202 80 8 1 -1 7 -21 15 -32 11 -46 10 -125 -11 -49 -13
-109 -31 -132 -40 -31 -11 -47 -13 -54 -6 -7 7 1 16 28 27 60 26 287 81 435
105 74 12 141 23 149 25 32 6 230 5 230 -2z m-1100 -81 c142 -49 267 -130 378
-246 113 -118 146 -187 146 -306 0 -65 -5 -96 -21 -131 -28 -63 -104 -133
-189 -175 -63 -32 -81 -36 -147 -36 -83 0 -159 18 -136 33 8 5 21 8 29 8 10 0
8 -3 -5 -9 -15 -6 -9 -9 25 -9 34 0 40 3 25 9 -28 12 -2 12 29 0 16 -6 27 -6
31 0 4 6 19 10 35 10 16 0 32 5 36 11 4 7 21 9 42 6 19 -4 32 -3 28 0 -3 3 0
13 6 22 10 13 10 14 -2 4 -8 -7 -23 -13 -34 -13 -16 0 -12 5 14 17 19 10 37
21 38 25 2 5 8 6 13 2 16 -9 41 67 37 112 -2 29 0 40 7 33 5 -6 10 -32 9 -58
0 -39 -7 -57 -33 -89 l-32 -41 39 22 c44 24 87 79 79 101 -3 8 7 35 23 60 17
27 27 53 24 63 -5 15 -4 16 5 3 8 -12 11 -8 10 20 0 30 -2 32 -10 15 -8 -16
-8 -15 -4 9 7 34 -12 99 -27 90 -6 -4 -8 1 -4 14 4 12 2 23 -5 28 -8 5 -9 3
-4 -6 5 -9 4 -11 -4 -6 -6 4 -10 13 -9 19 6 32 -120 173 -202 227 l-35 23 40
-39 c22 -21 44 -39 48 -39 13 0 26 -27 20 -42 -3 -7 0 -13 7 -13 6 0 8 5 5 10
-10 16 1 11 16 -7 10 -11 10 -14 2 -9 -7 4 -13 3 -13 -2 0 -5 14 -15 30 -22
44 -18 43 -25 -1 -26 -21 -1 -36 2 -34 6 2 4 -2 7 -10 7 -11 0 -12 -4 -4 -14
9 -10 8 -13 -4 -13 -9 0 -18 -4 -22 -10 -3 -5 7 -5 25 1 17 6 41 9 53 5 27 -6
73 -63 52 -63 -8 0 -12 4 -9 9 3 4 2 8 -3 9 -4 0 -16 2 -25 4 -10 2 -18 -3
-18 -11 0 -8 -6 -11 -17 -7 -10 3 -14 2 -10 -2 4 -5 20 -10 35 -11 15 -1 35
-2 45 -3 9 0 17 -6 17 -12 0 -5 -4 -8 -9 -4 -5 3 -12 1 -15 -4 -3 -5 3 -11 14
-14 10 -3 21 0 23 7 3 6 8 -2 12 -17 10 -37 -3 -49 -51 -49 -25 0 -42 6 -51
19 -13 17 -11 18 29 24 42 5 42 5 13 13 -84 20 -104 27 -115 41 -7 8 -10 15
-6 15 3 0 -14 18 -39 41 -52 48 -49 71 12 87 21 5 30 10 21 11 -10 1 -40 -8
-68 -18 -34 -13 -52 -16 -57 -8 -4 6 -1 7 8 3 8 -4 5 -1 -5 8 -10 8 -23 13
-29 9 -6 -3 -7 -1 -3 5 9 14 -51 53 -70 45 -19 -7 -18 12 2 31 8 9 12 16 7 16
-5 0 -14 -5 -20 -11 -9 -9 -24 -6 -60 11 -26 13 -52 24 -58 25 -29 4 -74 28
-72 38 1 7 -7 11 -18 9 -11 -1 -58 11 -105 27 l-85 30 57 -2 c31 -1 54 -4 52
-6 -7 -7 40 -28 53 -24 8 3 6 10 -5 22 -9 10 -21 16 -26 13 -5 -3 -6 0 -2 6 7
12 40 11 52 -1 15 -14 26 -6 13 9 -12 14 -10 16 16 12 17 -2 30 2 33 11 4 11
-16 13 -104 9 -87 -3 -119 -9 -159 -27 -95 -44 -117 -52 -110 -41 10 17 120
69 178 85 81 21 214 12 317 -23z m-2085 18 c-2 -4 55 -22 128 -40 132 -33 234
-73 272 -105 19 -16 19 -16 -15 -10 -19 4 -43 8 -52 8 -9 1 -15 4 -12 8 5 8
-92 49 -115 49 -9 -1 2 -9 24 -20 l40 -18 -27 -13 c-15 -6 -25 -15 -23 -19 3
-4 -10 -10 -28 -13 -185 -32 -263 -33 -223 -4 14 10 9 12 -28 12 l-45 0 21
-22 c27 -28 82 -30 226 -7 115 18 167 16 167 -6 0 -8 -9 -16 -20 -18 -38 -7
-37 -20 1 -16 29 4 35 2 24 -5 -12 -9 -10 -11 10 -12 24 -2 24 -2 2 -6 -12 -2
-20 -8 -17 -13 3 -4 -7 -11 -20 -14 -14 -4 -24 -10 -21 -14 2 -4 -7 -8 -20 -8
-15 -1 -21 2 -17 10 4 6 -1 4 -12 -4 -18 -15 -85 -21 -85 -8 0 4 -6 5 -13 2
-8 -3 -26 0 -41 5 -26 11 -39 20 -76 53 -11 10 -22 14 -24 9 -7 -11 74 -68
110 -77 16 -4 34 -10 39 -14 6 -4 36 -13 68 -20 31 -7 55 -16 52 -18 -10 -11
-135 -11 -129 0 4 6 -2 5 -15 -1 -19 -11 -25 -8 -22 11 0 4 -7 4 -17 1 -14 -6
-15 -4 -4 9 16 20 1 32 -31 23 -17 -5 -19 -4 -7 4 8 6 13 11 10 12 -37 8 -70
8 -70 1 0 -18 93 -79 113 -74 4 1 7 -3 7 -10 0 -6 3 -8 7 -5 3 4 11 -1 18 -10
13 -17 40 -9 29 9 -4 7 -2 8 5 4 9 -6 9 -11 1 -21 -11 -13 7 -22 85 -40 l30
-7 -25 -10 c-14 -5 -39 -7 -56 -3 -17 3 -42 1 -55 -4 -22 -9 -22 -10 -4 -12
11 -1 24 -1 28 0 5 1 6 -3 2 -8 -3 -6 18 -22 47 -37 29 -15 47 -29 41 -31 -19
-7 -103 26 -142 55 l-33 25 26 16 c28 17 34 31 13 31 -15 0 -120 63 -162 98
l-28 22 28 22 27 21 -33 18 c-19 9 -54 35 -79 58 -41 36 -43 40 -21 41 19 0
11 10 -45 53 -38 30 -89 65 -113 79 l-44 26 29 5 c43 7 343 4 339 -3z m1390
-27 c40 -41 81 -156 71 -198 -9 -37 -26 -30 -26 11 0 60 -22 115 -62 157 -36
38 -39 39 -90 35 l-52 -5 23 18 c14 11 39 19 62 19 31 0 45 -7 74 -37z m-1069
-26 c6 2 17 -4 25 -14 13 -16 12 -17 -2 -5 -9 7 -23 10 -32 6 -10 -3 -20 3
-28 18 -11 22 -11 22 7 7 10 -9 24 -15 30 -12z m1031 -11 c25 -21 28 -32 29
-84 1 -48 -1 -58 -11 -49 -37 35 -60 48 -100 59 -49 13 -95 4 -103 -22 -4 -11
-2 -11 11 2 36 35 177 -1 146 -38 -11 -13 -8 -17 9 -11 4 1 6 6 4 10 -1 5 2 6
7 3 17 -11 5 -41 -16 -38 -11 1 -26 -5 -34 -15 -12 -16 -12 -17 2 -6 13 10 16
10 16 -1 0 -14 -14 -16 -34 -3 -8 5 -10 0 -7 -19 4 -22 2 -25 -18 -20 -13 3
-17 3 -10 0 18 -8 4 -24 -15 -17 -11 4 -14 3 -9 -5 14 -23 -11 -12 -39 18 -27
28 -58 32 -34 4 6 -7 15 -11 20 -9 10 7 31 -30 22 -39 -4 -3 -14 1 -23 9 -15
14 -18 14 -23 1 -3 -8 -20 -17 -38 -21 -21 -5 -27 -10 -19 -15 16 -10 4 -30
-18 -29 -14 0 -14 2 2 8 19 7 19 8 -1 13 -18 5 -21 2 -17 -17 3 -16 -4 -28
-24 -40 -15 -10 -39 -29 -54 -43 -16 -14 -28 -22 -28 -16 0 5 -4 3 -9 -5 -7
-10 -13 -11 -31 -1 -13 7 -20 8 -16 2 3 -6 2 -13 -4 -17 -5 -3 -10 -1 -10 5 0
6 -19 10 -49 8 -27 -2 -47 -6 -45 -10 3 -4 25 -16 50 -27 40 -18 44 -22 34
-41 -6 -11 -13 -20 -16 -20 -3 0 -2 5 1 10 3 6 -1 10 -10 10 -9 0 -14 -4 -11
-8 2 -4 -4 -14 -16 -21 -11 -7 -18 -8 -14 -3 3 5 -2 9 -11 9 -12 0 -11 -5 7
-19 l22 -18 -25 2 c-14 1 -23 6 -21 10 5 8 -10 12 -35 9 -8 -2 -10 2 -5 10 4
7 3 10 -3 6 -6 -4 -16 0 -23 8 -6 7 -18 11 -26 8 -10 -3 -12 0 -8 10 3 8 1 18
-5 22 -24 14 -8 43 57 107 64 64 168 145 285 223 54 36 56 36 86 21 17 -9 31
-14 31 -12 0 3 -12 11 -26 19 l-26 13 41 27 c22 15 45 27 50 27 5 0 14 14 21
30 17 42 47 60 97 60 30 0 50 -7 70 -24z m1299 17 c-3 -4 25 -21 63 -39 85
-39 126 -53 169 -56 30 -2 32 -4 15 -16 -11 -8 -31 -11 -50 -8 -36 5 -53 -8
-25 -19 16 -7 15 -8 -3 -15 -28 -12 -35 -12 -35 1 0 5 5 7 12 3 7 -4 8 -3 4 5
-5 7 -12 9 -19 3 -19 -14 -49 -23 -42 -12 6 9 -8 14 -27 11 -5 0 -8 2 -8 7 0
4 -16 8 -36 9 -33 2 -35 1 -18 -13 17 -12 15 -12 -14 -3 -25 9 -30 14 -20 20
7 5 8 9 3 9 -6 0 -15 -4 -21 -10 -6 -6 -19 -4 -38 5 -16 8 -35 15 -43 15 -9 0
-13 6 -9 15 3 8 0 15 -7 16 -7 0 -3 5 8 10 17 8 16 9 -7 6 -15 -2 -33 0 -40 5
-10 7 -10 8 2 7 8 -1 26 -1 40 1 23 1 23 2 5 10 -19 8 -19 9 3 9 12 1 22 5 22
10 0 6 24 12 53 14 28 2 56 4 61 5 5 1 6 -1 2 -5z m-1526 -47 c0 -2 -30 -23
-67 -46 -38 -24 -93 -61 -123 -83 -30 -23 -80 -59 -110 -81 -30 -23 -102 -86
-160 -141 -71 -69 -93 -86 -70 -55 84 110 276 267 450 367 78 45 80 46 80 39z
m599 -40 c20 -13 81 -49 136 -81 210 -122 319 -198 433 -303 24 -22 53 -43 65
-46 31 -8 76 -52 83 -82 4 -14 1 -37 -6 -52 -11 -21 -14 -23 -17 -10 -2 9 0
25 5 35 7 13 6 22 -3 30 -11 10 -15 7 -20 -16 -8 -39 -31 -56 -90 -70 -95 -22
-197 11 -218 71 -5 15 -3 15 21 3 95 -48 126 -54 171 -31 38 20 47 34 54 81
l5 40 -16 -37 c-22 -48 -69 -86 -85 -68 -9 10 -9 11 1 6 14 -8 42 10 42 26 0
6 -7 5 -15 -2 -20 -17 -19 -5 3 28 l17 27 -38 -29 c-21 -16 -40 -26 -44 -22
-3 3 -1 6 5 6 7 0 11 5 10 12 -2 7 2 12 9 13 7 0 17 5 24 12 9 9 8 11 -4 9 -9
-1 -20 -5 -23 -9 -11 -11 -26 -8 -19 3 11 18 -5 31 -26 20 -13 -7 -19 -7 -19
0 0 5 5 10 12 10 6 0 9 3 6 6 -4 3 -16 1 -27 -5 -11 -7 -32 -8 -47 -5 -22 6
-24 8 -10 16 9 5 13 14 10 20 -4 7 -2 8 4 4 7 -4 21 -1 33 7 19 14 19 15 -13
16 -78 2 -81 3 -69 11 9 5 8 9 -6 15 -10 5 -21 9 -25 9 -3 1 -10 4 -14 8 -3 4
3 5 15 3 12 -2 19 0 16 6 -4 5 -14 9 -23 9 -15 0 -15 2 -2 10 8 5 12 10 8 10
-3 0 -14 3 -24 7 -13 5 -15 3 -9 -8 8 -12 6 -12 -8 0 -13 10 -14 18 -6 32 5
10 15 19 21 19 6 0 9 2 7 4 -2 3 -20 1 -39 -3 -31 -6 -39 -3 -72 30 -21 21
-58 45 -83 54 -24 10 -43 20 -41 24 3 3 -7 11 -20 18 -13 6 -22 8 -19 4 2 -5
-8 -6 -23 -3 -24 5 -24 6 -7 13 14 5 16 8 5 9 -8 2 -20 2 -27 1 -6 -1 -14 2
-17 7 -3 5 8 8 25 6 16 -2 28 0 24 5 -3 5 1 12 7 14 7 3 2 6 -12 7 -23 1 -24
2 -5 11 15 7 11 7 -14 3 -23 -4 -31 -3 -27 5 4 6 1 11 -6 12 -7 1 -2 5 12 10
18 6 11 7 -25 4 -72 -8 -77 -9 -105 -24 l-25 -14 20 23 c42 47 127 55 184 16z
m-1434 -6 c-3 -5 -11 -10 -16 -10 -6 0 -7 5 -4 10 3 6 11 10 16 10 6 0 7 -4 4
-10z m1630 -45 c116 -65 476 -325 449 -325 -4 0 -57 38 -118 84 -119 90 -264
188 -361 243 -33 19 -49 31 -35 27 14 -3 43 -17 65 -29z m-238 -1 c-3 -3 -12
-4 -19 -1 -8 3 -5 6 6 6 11 1 17 -2 13 -5z m-1180 -70 c-3 -3 -12 -4 -19 -1
-8 3 -5 6 6 6 11 1 17 -2 13 -5z m1275 -61 c37 -18 80 -44 95 -60 l28 -28 -53
-6 c-29 -4 -60 -13 -69 -20 -14 -12 -15 -11 -8 11 17 51 12 64 -35 88 -36 18
-60 22 -130 21 -47 0 -103 -3 -124 -7 -37 -7 -38 -8 -21 -22 11 -8 16 -10 12
-3 -5 8 6 13 35 16 70 8 168 7 168 -1 0 -4 12 -9 26 -10 23 -2 54 -22 54 -36
0 -9 -81 -86 -103 -98 -12 -6 -17 -6 -13 0 3 5 -4 12 -15 15 -13 4 -18 10 -13
18 5 8 3 10 -5 5 -9 -6 -8 -13 5 -27 11 -12 13 -19 5 -19 -7 0 -9 -5 -5 -11 4
-7 -1 -7 -16 1 -15 8 -20 8 -16 1 11 -17 -5 -13 -28 7 -21 17 -21 17 -2 -5 22
-26 15 -53 -13 -53 -27 0 -34 15 -42 84 -4 32 -13 63 -19 70 -10 8 -11 8 -5
-3 5 -8 11 -44 15 -80 4 -36 9 -73 11 -81 3 -9 -8 -18 -31 -26 -30 -10 -39 -9
-65 8 l-30 20 24 -21 c13 -12 18 -21 12 -21 -7 0 -9 -5 -5 -12 4 -7 -3 -4 -16
7 l-23 20 8 -25 c7 -23 7 -24 -11 -10 -10 7 -37 30 -58 49 -37 34 -38 34 -17
6 47 -64 53 -74 46 -85 -8 -12 -45 -13 -45 -1 0 5 -8 8 -17 6 -10 -1 -17 -9
-15 -19 4 -25 -17 -19 -30 9 -6 13 -15 22 -19 19 -5 -3 -9 0 -9 6 0 6 -4 9 -9
5 -6 -3 -15 3 -20 14 -6 11 -19 22 -29 25 -19 7 -28 46 -9 46 8 0 8 3 -1 12
-19 19 -14 27 29 40 33 10 38 13 23 19 -17 7 -16 8 4 8 13 1 21 5 18 9 -2 4 5
9 17 9 12 1 17 -1 11 -5 -19 -12 -12 -41 15 -64 l26 -23 -24 28 c-23 25 -23
27 -5 28 10 0 13 3 7 6 -10 3 -9 8 2 20 8 8 13 18 10 23 -5 8 32 24 49 21 5
-1 16 5 26 14 9 8 30 17 46 18 17 2 39 9 50 15 16 9 17 11 3 17 -9 3 -60 -10
-113 -29 -221 -79 -389 -210 -461 -361 -33 -68 -38 -89 -39 -149 0 -60 5 -82
32 -138 18 -38 33 -68 35 -68 6 0 -6 96 -14 105 -23 24 -9 40 37 41 l45 2 -21
-23 c-27 -28 -44 -96 -28 -110 7 -7 9 -7 5 0 -3 6 -2 17 4 25 7 12 9 10 9 -7
0 -41 30 -100 63 -123 l32 -23 -26 29 c-15 16 -24 35 -21 43 3 8 0 11 -7 7 -7
-5 -9 -1 -5 8 5 12 19 2 59 -41 36 -37 59 -54 69 -50 9 4 21 -2 29 -13 8 -11
17 -17 20 -13 4 3 7 1 7 -5 0 -6 7 -9 15 -6 8 4 15 1 15 -6 0 -8 9 -11 25 -8
13 3 22 1 19 -3 -3 -5 19 -9 48 -8 45 0 49 2 28 10 -14 6 -33 8 -42 5 -10 -2
-16 0 -12 5 3 5 -2 9 -10 9 -15 0 -46 26 -46 38 0 4 11 7 25 7 14 0 25 -4 25
-8 0 -5 5 -5 10 -2 6 3 10 1 10 -5 0 -14 48 -33 87 -33 17 -1 29 -5 27 -9 -6
-10 10 -11 19 -1 4 3 0 14 -9 24 -12 13 -12 19 -3 25 8 4 10 3 5 -4 -5 -8 2
-11 23 -8 17 2 28 0 26 -4 -3 -4 5 -10 16 -13 14 -4 30 3 48 20 14 14 19 22
11 18 -11 -6 -10 -3 3 12 9 11 14 23 10 28 -5 4 0 5 11 1 15 -5 18 -2 14 19
-3 14 -2 27 1 30 6 3 11 -15 14 -57 1 -10 4 -18 7 -18 12 0 26 57 19 77 -6 18
-4 20 14 16 20 -4 20 -3 4 7 -18 12 -15 30 6 30 7 0 6 -4 -3 -10 -11 -8 -8
-10 15 -8 20 2 29 -1 27 -9 -1 -7 5 -13 13 -13 24 0 28 -26 11 -62 l-17 -33
21 21 c12 11 23 29 25 40 2 10 4 20 4 22 1 2 5 0 11 -3 6 -4 4 -16 -6 -31 -9
-13 -12 -24 -7 -24 15 0 44 36 36 43 -3 4 -1 7 6 7 7 0 10 4 6 9 -3 5 -1 12 4
16 6 3 8 -6 5 -22 -2 -16 -1 -23 3 -18 5 6 22 20 38 32 51 35 135 121 135 137
0 8 7 19 16 24 18 10 36 78 28 106 -4 11 -2 16 4 13 5 -4 11 24 15 69 7 90
-10 166 -44 200 -25 24 -121 50 -143 37 -8 -4 -8 -3 0 6 6 7 28 16 48 21 56
12 113 -21 146 -85 22 -44 25 -62 25 -155 -1 -183 -56 -289 -208 -403 -74 -55
-96 -66 -208 -111 -159 -62 -349 -79 -474 -42 -207 61 -344 212 -347 382 -2
120 45 215 159 325 122 118 302 215 471 253 37 9 76 18 87 20 11 3 61 4 110 3
77 -2 99 -7 157 -34z m-1712 -17 c0 -2 -7 -7 -16 -10 -8 -3 -12 -2 -9 4 6 10
25 14 25 6z m1089 -27 c-16 -10 -23 -4 -14 10 3 6 11 8 17 5 6 -4 5 -9 -3 -15z
m-29 -9 c0 -5 -4 -10 -10 -10 -5 0 -10 5 -10 10 0 6 5 10 10 10 6 0 10 -4 10
-10z m629 -53 c-6 -13 -20 -29 -31 -36 -16 -10 -15 -6 7 23 32 42 39 45 24 13z
m-1224 -7 c3 -5 -3 -10 -15 -10 -12 0 -18 5 -15 10 3 6 10 10 15 10 5 0 12 -4
15 -10z m1206 -78 c-61 -43 -346 -194 -471 -249 -41 -18 -102 -47 -135 -64
-39 -20 -54 -25 -43 -14 14 16 654 344 668 344 3 0 -6 -8 -19 -17z m-861 -24
c10 -6 7 -7 -10 -2 -14 3 -32 11 -40 16 -10 6 -7 7 10 2 14 -3 32 -11 40 -16z
m230 -3 c-7 -8 -20 -15 -28 -15 -13 0 -12 3 4 15 25 19 40 19 24 0z m808 -11
c31 -21 45 -52 48 -103 1 -32 -1 -39 -8 -27 -5 9 -6 21 -3 26 3 6 4 10 1 10
-2 0 -11 3 -20 6 -11 4 -16 1 -16 -11 0 -15 -2 -16 -17 -4 -16 13 -17 12 -5
-3 12 -15 10 -24 -9 -62 l-22 -45 -46 31 -46 30 45 -42 c25 -23 40 -39 34 -36
-7 3 -17 -1 -24 -9 -7 -8 -16 -12 -21 -9 -5 3 -9 0 -9 -5 0 -12 -27 -10 -50 3
-12 7 -13 6 -2 -5 14 -16 16 -33 2 -24 -5 3 -10 1 -10 -4 0 -6 -10 -11 -22
-12 -13 0 -17 -3 -10 -6 6 -2 9 -9 6 -15 -4 -7 -14 -1 -25 13 -18 23 -19 23
-19 4 0 -35 -21 -48 -43 -27 -20 17 -20 17 -2 -11 14 -21 15 -27 4 -25 -8 2
-13 -2 -12 -8 3 -14 -29 -13 -39 1 -5 6 -8 5 -8 -4 0 -11 -3 -11 -15 -1 -8 7
-15 9 -15 5 0 -4 -8 -1 -17 6 -9 8 -14 9 -10 2 4 -6 1 -14 -5 -16 -7 -3 1 -6
17 -7 17 -1 25 -4 18 -6 -7 -3 -9 -12 -6 -20 3 -8 0 -14 -6 -14 -6 0 -11 5
-11 10 0 6 -7 10 -16 10 -13 0 -14 -3 -5 -14 9 -11 9 -16 0 -22 -7 -4 -9 -3
-6 3 4 6 0 13 -8 16 -8 4 -12 1 -9 -6 3 -8 -4 -13 -15 -13 -11 0 -18 3 -16 6
1 3 -3 11 -11 18 -9 8 -14 9 -14 2 0 -6 -4 -8 -10 -5 -5 3 -10 2 -10 -4 0 -6
-7 -7 -17 -4 -12 5 -14 3 -8 -8 7 -11 6 -12 -7 -2 -8 7 -19 9 -23 5 -5 -4 -5
-2 -2 4 4 7 1 17 -7 23 -11 9 -15 9 -19 -1 -3 -7 12 -28 32 -46 20 -18 30 -30
22 -26 -8 4 -28 8 -45 9 -42 2 -68 15 -62 31 3 7 -3 18 -12 26 -11 9 -14 10
-8 1 4 -7 3 -13 -3 -13 -15 0 -51 74 -51 105 0 15 4 24 10 20 6 -3 10 -2 10 3
0 5 15 15 33 23 17 7 73 31 122 54 50 23 131 61 181 84 84 39 95 42 130 32 35
-9 37 -9 20 4 -11 8 -26 15 -34 15 -21 0 21 31 93 69 67 35 127 40 163 15z
m-756 -62 c14 -15 34 -40 44 -56 l18 -29 -31 5 c-18 2 -32 2 -31 -1 2 -19 -4
-22 -19 -10 -15 12 -16 12 -10 -3 4 -12 2 -15 -9 -11 -10 4 -14 1 -12 -8 1 -8
-2 -15 -7 -15 -6 -1 -9 2 -7 7 1 6 -5 6 -17 0 -10 -6 -22 -7 -27 -3 -5 4 -2
-2 6 -13 14 -18 12 -18 -23 3 -39 22 -40 15 -5 -25 20 -21 20 -21 0 -32 -11
-6 -29 -8 -39 -4 -15 5 -16 3 -6 -7 16 -18 -1 -40 -31 -40 -17 0 -18 -2 -6
-10 13 -8 12 -10 -3 -10 -10 0 -15 -4 -12 -10 9 -15 -15 -12 -31 4 -22 22 -17
38 9 30 l22 -7 -23 19 -23 19 21 23 c21 23 23 23 43 5 21 -17 21 -17 7 0 -19
25 -23 54 -8 63 7 5 8 3 3 -7 -8 -12 -6 -12 8 0 16 13 14 36 -3 26 -5 -3 -11
-1 -14 4 -7 11 12 19 40 16 22 -2 28 21 11 43 -6 8 -6 12 2 12 7 0 10 4 7 9
-4 5 2 7 13 4 10 -3 22 1 27 8 5 9 2 11 -9 6 -11 -4 -14 -2 -11 8 7 17 39 12
60 -9 8 -9 20 -16 26 -16 16 0 -21 38 -43 45 -11 4 -19 10 -19 15 0 16 87 -21
112 -48z m1396 38 c-7 -11 -16 -20 -19 -20 -4 0 -6 -16 -4 -35 2 -19 2 -35 1
-35 -2 0 -15 18 -30 40 -23 35 -24 40 -9 40 10 0 29 7 43 14 14 8 26 14 28 15
1 1 -3 -8 -10 -19z m-1810 -75 c26 -19 23 -32 -5 -20 -26 12 -37 12 -50 2 -6
-4 -26 -6 -43 -3 -47 7 -19 -21 39 -38 26 -8 36 -15 24 -15 -36 -1 -107 35
-130 67 -29 39 -29 46 2 70 l25 20 58 -33 c31 -19 67 -41 80 -50z m1460 48 c0
-21 -2 -23 -10 -9 -5 9 -6 21 -3 26 10 16 13 12 13 -17z m-39 3 c9 -11 9 -16
-1 -22 -7 -4 -10 -4 -6 1 4 4 3 14 -3 22 -6 7 -9 13 -6 13 2 0 10 -6 16 -14z
m-222 -128 c-8 -32 -71 -102 -137 -153 -205 -158 -552 -254 -676 -188 -78 41
-116 112 -78 144 13 10 17 10 25 -2 7 -11 9 -9 9 8 0 16 11 28 40 43 21 11 42
20 45 20 3 0 5 -17 5 -37 0 -48 28 -94 74 -122 40 -25 44 -31 21 -31 -9 0 -36
19 -60 41 -25 23 -45 39 -45 35 0 -4 -11 1 -25 10 -25 17 -27 13 -13 -32 1 -7
-1 -12 -7 -12 -19 1 -42 23 -53 53 -8 24 -11 26 -11 9 -1 -30 34 -71 74 -85
19 -7 32 -16 29 -21 -3 -4 36 -8 86 -8 174 0 363 73 550 213 101 75 122 95
115 108 -3 4 -1 10 5 14 5 3 10 23 11 43 l1 37 10 -32 c6 -17 8 -42 5 -55z
m-1224 45 c-7 -2 -19 -2 -25 0 -7 3 -2 5 12 5 14 0 19 -2 13 -5z m1667 -67 c0
-2 -8 -10 -17 -17 -16 -13 -17 -12 -4 4 13 16 21 21 21 13z m-83 -100 c0 -8
-8 -11 -19 -8 -10 2 -18 7 -18 11 0 4 8 7 18 8 10 1 19 -4 19 -11z m-1280
-179 c10 -11 36 -33 58 -50 36 -26 37 -29 13 -23 -52 12 -76 25 -97 52 -22 28
-26 50 -14 80 6 15 8 14 14 -10 4 -15 16 -37 26 -49z m143 42 c17 -13 18 -17
5 -10 -33 17 -51 31 -40 31 6 0 21 -10 35 -21z m663 -28 c-3 -11 -14 -27 -24
-37 -17 -16 -19 -16 -19 -1 0 10 -1 20 -1 25 -1 5 37 31 48 32 0 0 -1 -9 -4
-19z m-134 -35 c-3 -3 -11 5 -18 17 -13 21 -12 21 5 5 10 -10 16 -20 13 -22z
m41 -12 c0 -41 -23 -44 -27 -3 -2 22 -2 22 6 4 9 -18 10 -17 10 8 1 40 11 33
11 -9z m-563 -131 c0 -9 -4 -10 -14 -2 -7 6 -13 12 -13 14 0 1 6 2 13 2 8 0
14 -6 14 -14z m189 5 c3 -4 -1 -5 -10 -4 -8 1 -18 5 -22 8 -3 4 1 5 10 4 8 -1
18 -5 22 -8z m91 -3 c0 -8 -4 -12 -9 -9 -5 3 -6 10 -3 15 9 13 12 11 12 -6z"/>
<path d="M1720 3806 c0 -2 8 -10 18 -17 15 -13 16 -12 3 4 -13 16 -21 21 -21
13z"/>
<path d="M2126 3655 c16 -22 37 -62 46 -90 10 -27 17 -41 17 -30 1 28 -32 95
-64 130 -27 30 -27 30 1 -10z"/>
<path d="M2293 3511 c12 -27 23 -45 25 -41 3 9 -35 90 -43 90 -2 0 6 -22 18
-49z"/>
<path d="M2101 3434 c0 -11 3 -14 6 -6 3 7 2 16 -1 19 -3 4 -6 -2 -5 -13z"/>
<path d="M2492 3160 c0 -19 2 -27 5 -17 2 9 2 25 0 35 -3 9 -5 1 -5 -18z"/>
<path d="M3025 3541 c-3 -5 -2 -12 3 -15 5 -3 9 1 9 9 0 17 -3 19 -12 6z"/>
<path d="M2984 3428 c-4 -7 -3 -8 4 -4 7 4 12 2 12 -4 0 -6 5 -8 10 -5 11 7 4
25 -10 25 -5 0 -12 -5 -16 -12z"/>
<path d="M2930 3330 c-9 -6 -10 -10 -3 -10 6 0 15 5 18 10 8 12 4 12 -15 0z"/>
<path d="M2974 3284 c-18 -14 -18 -15 4 -4 12 6 22 13 22 15 0 8 -5 6 -26 -11z"/>
<path d="M2806 3162 c-3 -5 1 -9 9 -9 8 0 12 4 9 9 -3 4 -7 8 -9 8 -2 0 -6 -4
-9 -8z"/>
<path d="M3037 3143 c-4 -3 -7 -11 -7 -17 0 -6 5 -5 12 2 6 6 9 14 7 17 -3 3
-9 2 -12 -2z"/>
<path d="M2847 3113 c-4 -3 -7 -11 -7 -17 0 -6 5 -5 12 2 6 6 9 14 7 17 -3 3
-9 2 -12 -2z"/>
<path d="M2742 3370 c0 -19 2 -27 5 -17 2 9 2 25 0 35 -3 9 -5 1 -5 -18z"/>
<path d="M3383 3234 c-37 -16 -39 -19 -17 -28 8 -3 13 -2 10 2 -3 5 1 9 9 9
12 0 12 -6 -1 -35 -22 -54 -10 -48 16 8 13 27 22 52 19 54 -2 2 -19 -3 -36
-10z"/>
<path d="M3315 3210 c-3 -6 1 -7 9 -4 18 7 21 14 7 14 -6 0 -13 -4 -16 -10z"/>
<path d="M3474 3204 c-18 -14 -18 -15 4 -4 12 6 22 13 22 15 0 8 -5 6 -26 -11z"/>
<path d="M3750 3190 l-35 -7 38 -2 c21 0 36 -5 32 -10 -3 -5 0 -13 6 -17 8 -4
9 -3 5 4 -11 18 17 15 40 -4 19 -15 18 -15 -4 -11 -12 3 -20 1 -17 -3 3 -5 -3
-11 -13 -14 -11 -4 -41 -27 -68 -52 -27 -25 -56 -49 -64 -54 -8 -5 -12 -11 -9
-14 3 -3 32 17 65 45 54 48 142 99 172 99 19 0 14 18 -7 30 -25 13 -41 13 -21
0 11 -8 8 -9 -15 -6 -16 2 -39 5 -50 6 l-20 1 20 9 20 9 -20 -1 c-11 0 -36 -4
-55 -8z"/>
<path d="M3191 3144 c0 -11 3 -14 6 -6 3 7 2 16 -1 19 -3 4 -6 -2 -5 -13z"/>
<path d="M3279 3143 c-13 -16 -12 -17 4 -4 16 13 21 21 13 21 -2 0 -10 -8 -17
-17z"/>
<path d="M3173 3102 c-1 -22 0 -24 9 -8 6 10 6 22 2 26 -5 5 -10 -3 -11 -18z"/>
<path d="M3950 3093 c0 -12 3 -14 8 -7 4 7 16 14 27 17 15 4 14 5 -7 6 -21 1
-28 -4 -28 -16z"/>
<path d="M3918 3073 c7 -3 16 -2 19 1 4 3 -2 6 -13 5 -11 0 -14 -3 -6 -6z"/>
<path d="M3381 3001 c-8 -6 -9 -11 -3 -15 6 -3 14 -1 17 5 9 14 2 20 -14 10z"/>
<path d="M1150 3125 c0 -8 30 -65 34 -65 8 0 0 46 -9 53 -5 5 15 6 45 4 35 -4
48 -2 35 3 -22 10 -105 13 -105 5z"/>
<path d="M2250 3019 c0 -5 5 -7 10 -4 6 3 10 8 10 11 0 2 -4 4 -10 4 -5 0 -10
-5 -10 -11z"/>
<path d="M1840 2950 c8 -5 20 -10 25 -10 6 0 3 5 -5 10 -8 5 -19 10 -25 10 -5
0 -3 -5 5 -10z"/>
<path d="M4118 3013 c7 -3 16 -2 19 1 4 3 -2 6 -13 5 -11 0 -14 -3 -6 -6z"/>
<path d="M4024 3000 c17 -6 36 -5 45 0 11 7 3 9 -29 9 -42 -1 -43 -1 -16 -9z"/>
<path d="M4090 3001 c0 -6 -7 -11 -16 -11 -8 0 -13 -4 -9 -9 8 -15 -35 -26
-115 -30 -32 -2 -33 -3 -12 -12 13 -5 29 -6 34 -2 7 3 8 1 4 -5 -4 -7 -1 -12
6 -13 7 -1 2 -5 -12 -10 -19 -6 -14 -7 19 -4 25 3 50 10 55 16 8 7 3 8 -16 4
-18 -5 -28 -3 -28 4 0 6 10 11 23 11 27 1 93 55 78 64 -6 4 -11 2 -11 -3z"/>
<path d="M3708 2953 c6 -2 18 -2 25 0 6 3 1 5 -13 5 -14 0 -19 -2 -12 -5z"/>
<path d="M3673 2703 c11 -3 16 -11 13 -19 -3 -8 -1 -14 4 -14 6 0 10 7 10 15
0 9 6 12 17 8 11 -4 14 -3 9 5 -4 7 -22 11 -39 11 -18 -1 -24 -3 -14 -6z"/>
<path d="M3032 2938 c2 -6 19 -17 37 -23 18 -6 29 -14 24 -20 -4 -5 0 -3 9 4
18 13 58 7 58 -10 0 -6 4 -8 9 -5 13 8 42 -4 35 -15 -5 -9 9 -13 35 -10 8 2
10 -2 6 -10 -5 -7 -3 -10 6 -7 8 3 22 1 32 -4 9 -5 17 -7 17 -4 0 19 -222 112
-241 101 -5 -4 -9 -1 -9 4 0 6 -5 11 -11 11 -6 0 -9 -5 -7 -12z"/>
<path d="M3258 2823 c7 -3 16 -2 19 1 4 3 -2 6 -13 5 -11 0 -14 -3 -6 -6z"/>
<path d="M780 2952 c0 -4 15 -16 33 -27 17 -10 53 -39 80 -64 26 -24 49 -42
50 -40 5 6 -19 50 -27 50 -39 -4 -14 5 54 20 80 17 58 19 -50 4 -32 -5 -41 -4
-30 4 8 5 18 7 24 4 5 -3 6 -1 2 5 -4 6 -14 8 -23 5 -11 -4 -14 -3 -9 5 5 8
-4 15 -26 19 -32 7 -32 7 -8 14 19 5 14 7 -22 8 -27 1 -48 -3 -48 -7z"/>
<path d="M1085 2913 c17 -2 54 -11 84 -19 29 -8 55 -13 57 -11 8 7 -111 37
-142 36 l-29 -2 30 -4z"/>
<path d="M2397 2833 c-11 -10 -8 -20 7 -26 8 -3 13 0 12 8 -3 19 -11 27 -19
18z"/>
<path d="M2127 2638 c2 -5 10 -8 18 -8 8 0 16 3 18 8 3 4 -5 7 -18 7 -13 0
-21 -3 -18 -7z"/>
<path d="M1930 2598 c0 -8 101 -80 106 -76 2 3 -15 18 -38 34 -58 39 -68 46
-68 42z"/>
<path d="M2053 2543 c0 -9 4 -10 14 -2 7 6 13 12 13 14 0 1 -6 2 -13 2 -8 0
-14 -6 -14 -14z"/>
<path d="M1980 2500 c0 -5 5 -10 11 -10 5 0 7 5 4 10 -3 6 -8 10 -11 10 -2 0
-4 -4 -4 -10z"/>
<path d="M1940 2490 c8 -5 20 -10 25 -10 6 0 3 5 -5 10 -8 5 -19 10 -25 10 -5
0 -3 -5 5 -10z"/>
<path d="M1824 2396 c31 -28 36 -30 36 -18 0 4 -15 16 -32 26 l-33 18 29 -26z"/>
<path d="M3151 2534 c0 -11 3 -14 6 -6 3 7 2 16 -1 19 -3 4 -6 -2 -5 -13z"/>
<path d="M3116 2517 c-16 -12 -17 -15 -3 -20 10 -4 17 1 20 14 6 23 6 23 -17
6z"/>
<path d="M2468 2593 c6 -2 18 -2 25 0 6 3 1 5 -13 5 -14 0 -19 -2 -12 -5z"/>
<path d="M2405 2561 c-6 -11 13 -26 22 -17 4 3 1 6 -6 6 -7 0 -9 5 -6 10 3 6
4 10 1 10 -3 0 -7 -4 -11 -9z"/>
<path d="M2322 2542 c-6 -2 -12 -8 -12 -14 0 -6 6 -8 14 -5 8 3 16 1 19 -6 2
-6 6 -7 9 -2 8 13 -14 33 -30 27z"/>
<path d="M2653 1864 c0 -7 6 -15 13 -18 8 -3 12 2 11 13 -1 20 -24 25 -24 5z"/>
<path d="M2257 1759 c7 -7 15 -10 18 -7 3 3 -2 9 -12 12 -14 6 -15 5 -6 -5z"/>
<path d="M2967 2371 c-17 -6 -16 -8 9 -20 23 -10 26 -10 16 2 -7 8 -9 17 -5
20 8 8 4 8 -20 -2z"/>
<path d="M2670 2271 c0 -5 7 -12 16 -15 14 -5 15 -4 4 9 -14 17 -20 19 -20 6z"/>
<path d="M2414 2163 c9 -17 21 -35 27 -39 13 -8 -1 21 -26 51 -15 19 -15 18
-1 -12z"/>
<path d="M2354 2145 c5 -20 3 -23 -11 -18 -17 7 -17 5 -2 -17 8 -13 23 -24 33
-26 14 -2 15 0 5 12 -6 7 -16 11 -22 7 -6 -4 -7 -1 -3 6 5 7 14 10 22 7 7 -3
16 0 20 6 4 6 3 8 -4 4 -6 -3 -13 -2 -17 4 -3 5 -1 10 6 10 8 0 8 4 -1 15 -19
23 -33 18 -26 -10z"/>
<path d="M2595 2119 c-5 -7 -4 -10 2 -6 11 7 36 -16 28 -25 -3 -3 1 -11 9 -17
28 -23 25 6 -3 33 -21 20 -31 24 -36 15z"/>
<path d="M2269 2098 c7 -10 11 -24 8 -32 -7 -18 11 -36 29 -29 8 3 14 1 14 -5
0 -5 7 -12 15 -16 24 -9 3 23 -41 64 -21 19 -32 27 -25 18z"/>
<path d="M2404 2096 c1 -8 5 -18 8 -22 4 -3 5 1 4 10 -1 8 -5 18 -8 22 -4 3
-5 -1 -4 -10z"/>
<path d="M2490 2063 c0 -13 29 -38 35 -31 3 3 -4 13 -15 23 -11 10 -20 13 -20
8z"/>
<path d="M2325 1988 c5 -24 15 -37 15 -18 0 10 3 10 15 0 8 -6 19 -10 24 -8 6
1 -5 13 -24 25 l-34 22 4 -21z"/>
<path d="M2050 2336 c0 -2 7 -7 16 -10 8 -3 12 -2 9 4 -6 10 -25 14 -25 6z"/>
<path d="M2836 1952 c-3 -5 1 -9 9 -9 8 0 12 4 9 9 -3 4 -7 8 -9 8 -2 0 -6 -4
-9 -8z"/>
</g>
</svg>
