<svg width="40" height="40" viewBox="0 0 40 40" fill="none" xmlns="http://www.w3.org/2000/svg">
<path d="M7.7 30.2C9.4 28.9 11.3 27.8753 13.4 27.126C15.5 26.3767 17.7 26.0013 20 26C22.3 25.9987 24.5 26.374 26.6 27.126C28.7 27.878 30.6 28.9027 32.3 30.2C33.4666 28.8333 34.3753 27.2833 35.026 25.55C35.6766 23.8167 36.0013 21.9667 36 20C36 15.5667 34.442 11.7913 31.326 8.674C28.21 5.55666 24.4347 3.99867 20 4C15.5653 4.00133 11.79 5.56 8.674 8.676C5.558 11.792 4 15.5667 4 20C4 21.9667 4.32533 23.8167 4.976 25.55C5.62667 27.2833 6.53466 28.8333 7.7 30.2ZM15.026 19.974C13.6753 18.626 13 16.968 13 15C13 13.032 13.6753 11.3733 15.026 10.024C16.3767 8.67466 18.0347 8 20 8C21.9653 8 23.624 8.67533 24.976 10.026C26.328 11.3767 27.0027 13.0347 27 15C26.9973 16.9653 26.3227 18.624 24.976 19.976C23.6293 21.328 21.9707 22.0027 20 22C18.0293 21.9973 16.3707 21.3227 15.024 19.976M20 40C17.2333 40 14.6333 39.4747 12.2 38.424C9.76666 37.3733 7.65 35.9487 5.85 34.15C4.05 32.3513 2.62533 30.2347 1.576 27.8C0.526669 25.3653 0.00133586 22.7653 2.53164e-06 20C-0.0013308 17.2347 0.524002 14.6347 1.576 12.2C2.628 9.76533 4.05267 7.64866 5.85 5.85C7.64733 4.05133 9.764 2.62667 12.2 1.576C14.636 0.525333 17.236 0 20 0C22.764 0 25.364 0.525333 27.8 1.576C30.236 2.62667 32.3526 4.05133 34.15 5.85C35.9473 7.64866 37.3726 9.76533 38.426 12.2C39.4793 14.6347 40.004 17.2347 40 20C39.996 22.7653 39.4706 25.3653 38.424 27.8C37.3773 30.2347 35.9526 32.3513 34.15 34.15C32.3473 35.9487 30.2306 37.374 27.8 38.426C25.3693 39.478 22.7693 40.0027 20 40ZM25 35.226C26.5667 34.7087 28 33.9667 29.3 33C28 32.0333 26.5667 31.292 25 30.776C23.4333 30.26 21.7667 30.0013 20 30C18.2333 29.9987 16.5667 30.2573 15 30.776C13.4333 31.2947 12 32.036 10.7 33C12 33.9667 13.4333 34.7087 15 35.226C16.5667 35.7433 18.2333 36.0013 20 36C21.7667 35.9987 23.4333 35.7407 25 35.226ZM22.15 17.15C22.7167 16.5833 23 15.8667 23 15C23 14.1333 22.7167 13.4167 22.15 12.85C21.5833 12.2833 20.8667 12 20 12C19.1333 12 18.4167 12.2833 17.85 12.85C17.2833 13.4167 17 14.1333 17 15C17 15.8667 17.2833 16.5833 17.85 17.15C18.4167 17.7167 19.1333 18 20 18C20.8667 18 21.5833 17.7167 22.15 17.15Z" fill="black"/>
</svg>
